<?xml version="1.0" encoding="utf-8"?>
<!-- Generator: Adobe Illustrator 15.1.0, SVG Export Plug-In . SVG Version: 6.00 Build 0)  -->
<!DOCTYPE svg PUBLIC "-//W3C//DTD SVG 1.1//EN" "http://www.w3.org/Graphics/SVG/1.1/DTD/svg11.dtd">
<svg version="1.1" id="Layer_1" xmlns="http://www.w3.org/2000/svg" xmlns:xlink="http://www.w3.org/1999/xlink" x="0px" y="0px"
	 width="512px" height="512px" viewBox="0 0 512 512" enable-background="new 0 0 512 512" xml:space="preserve">
<g>
	<path fill="#35ABC9" d="M132.508,502.888H107.81c-27.279,0-49.397-22.118-49.397-49.397v-24.698v-49.396v-49.396v-49.397v-49.396
		v-49.397v-49.396V83.015V58.316c0-27.279,22.118-49.397,49.397-49.397h24.698V502.888z"/>
	<path fill="#35ABC9" d="M453.587,153.685v31.548v79.595v31.548v79.595v77.52c0,27.279-22.117,49.397-49.396,49.397H169.556V8.919
		H404.19c27.279,0,49.396,22.118,49.396,49.397c0,3.943,0,15.774,0,15.774V153.685z"/>
	<g>
		<path fill="#C7D0DC" d="M58.413,231.205H46.063c-13.64,0-24.698-11.059-24.698-24.698s11.059-24.699,24.698-24.699h12.349"/>
		<path fill="#C7D0DC" d="M58.413,329.999H46.063c-13.64,0-24.698-11.06-24.698-24.698c0-13.64,11.059-24.699,24.698-24.699h12.349"
			/>
		<path fill="#C7D0DC" d="M58.413,428.792H46.063c-13.64,0-24.698-11.059-24.698-24.698s11.059-24.698,24.698-24.698h12.349"/>
		<path fill="#C7D0DC" d="M58.413,132.412H46.063c-13.64,0-24.698-11.059-24.698-24.699c0-13.639,11.059-24.698,24.698-24.698
			h12.349"/>
	</g>
	<g>
		<path fill="#F4A354" d="M453.587,296.473c3.643-2.123,7.827-3.425,12.35-3.425c13.64,0,24.698,11.059,24.698,24.698v37.048
			c0,13.64-11.059,24.698-24.698,24.698c-4.522,0-8.707-1.303-12.35-3.425"/>
		<path fill="#8AA800" d="M453.587,185.33c3.643-2.123,7.827-3.425,12.35-3.425c13.64,0,24.698,11.059,24.698,24.698v37.048
			c0,13.639-11.059,24.699-24.698,24.699c-4.522,0-8.707-1.303-12.35-3.426"/>
		<path fill="#F67773" d="M453.587,74.187c3.643-2.123,7.827-3.425,12.35-3.425c13.64,0,24.698,11.059,24.698,24.698v37.047
			c0,13.64-11.059,24.699-24.698,24.699c-4.522,0-8.707-1.303-12.35-3.425"/>
	</g>
	<circle fill="#FFFFFF" cx="305.396" cy="194.254" r="49.397"/>
	<path fill="#FFFFFF" d="M305.396,255.903c-40.918,0-74.095,52.568-74.095,89.749c0,37.168,33.177,33.646,74.095,33.646
		c40.919,0,74.096,3.521,74.096-33.646C379.492,308.472,346.315,255.903,305.396,255.903z"/>
</g>
</svg>
